<svg width="128" height="128" viewBox="0 0 128 128" fill="none" xmlns="http://www.w3.org/2000/svg">
<path d="M98.0586 127.325H29.4057C13.1614 127.325 0 114.105 0 97.8603V53.9296C0 45.8666 4.98 35.7287 11.3829 30.7487L43.3379 5.84873C52.9422 -1.62124 68.2972 -1.97696 78.2572 5.01873L114.896 30.6894C121.951 35.6102 127.464 46.163 127.464 54.7596V97.9196C127.464 114.105 114.303 127.325 98.0586 127.325ZM48.7922 12.8444L16.8371 37.7444C12.6279 41.0644 8.89286 48.5937 8.89286 53.9296V97.8603C8.89286 109.184 18.0821 118.432 29.4057 118.432H98.0586C109.382 118.432 118.571 109.243 118.571 97.9196V54.7596C118.571 49.068 114.481 41.183 109.797 37.9816L73.1586 12.3109C66.4 7.56802 55.2543 7.80516 48.7922 12.8444Z" fill="#4BA25D"/>
</svg>
