<svg width="153" height="144" viewBox="0 0 153 144" fill="none" xmlns="http://www.w3.org/2000/svg">
<path d="M146.647 21.0134V105.265C146.647 111.966 141.203 118.247 134.502 119.085L132.198 119.365C116.981 121.389 93.528 129.136 80.126 136.535C78.3112 137.582 75.3097 137.582 73.4251 136.535L73.1458 136.396C59.7437 129.067 36.3605 121.389 21.2134 119.365L19.1889 119.085C12.4879 118.247 7.04346 111.966 7.04346 105.265V20.9435C7.04346 12.6371 13.814 6.35497 22.1205 7.05299C36.7789 8.23962 58.9759 15.6388 71.4008 23.3868L73.1458 24.4336C75.1701 25.6901 78.5206 25.6901 80.5448 24.4336L81.7315 23.6659C86.129 20.9436 91.7131 18.2213 97.7859 15.7782V44.2575L111.746 34.9737L125.707 44.2575V7.82116C127.591 7.47215 129.406 7.26246 131.081 7.12286H131.5C139.807 6.42484 146.647 12.6371 146.647 21.0134Z" stroke="#4BA25D" stroke-width="12.1395" stroke-linecap="round" stroke-linejoin="round"/>
<path d="M76.8457 26.7402V131.443" stroke="#4BA25D" stroke-width="12.1395" stroke-linecap="round" stroke-linejoin="round"/>
<path d="M125.716 7.82324V44.2596L111.755 34.9758L97.7949 44.2596V15.7803C106.939 12.1506 117.13 9.21928 125.716 7.82324Z" stroke="#4BA25D" stroke-width="12.1395" stroke-linecap="round" stroke-linejoin="round"/>
</svg>
