<svg width="160" height="162" viewBox="0 0 160 162" fill="none" xmlns="http://www.w3.org/2000/svg">
<path d="M48.2124 1.96093e-06C44.9162 -0.00154488 41.7005 0.912096 39.0086 2.61501C36.3166 4.31792 34.281 6.72627 33.1823 9.50815H16.3464C12.1207 9.50815 8.06803 11.0108 5.08001 13.6855C2.09198 16.3601 0.41333 19.9878 0.41333 23.7704V137.868C0.41333 141.651 2.09198 145.278 5.08001 147.953C8.06803 150.628 12.1207 152.13 16.3464 152.13H57.1031C55.5048 149.124 54.4233 145.918 53.8952 142.622H16.3464C14.9378 142.622 13.5869 142.121 12.5909 141.23C11.5949 140.338 11.0354 139.129 11.0354 137.868V23.7704C11.0354 22.5095 11.5949 21.3003 12.5909 20.4087C13.5869 19.5172 14.9378 19.0163 16.3464 19.0163H33.1823C34.281 21.7982 36.3166 24.2065 39.0086 25.9094C41.7005 27.6124 44.9162 28.526 48.2124 28.5245H80.0785C83.3748 28.526 86.5905 27.6124 89.2824 25.9094C91.9743 24.2065 94.0099 21.7982 95.1087 19.0163H111.945C113.353 19.0163 114.704 19.5172 115.7 20.4087C116.696 21.3003 117.256 22.5095 117.256 23.7704V76.0652H127.878V23.7704C127.878 19.9878 126.199 16.3601 123.211 13.6855C120.223 11.0108 116.17 9.50815 111.945 9.50815H95.1087C94.0099 6.72627 91.9743 4.31792 89.2824 2.61501C86.5905 0.912096 83.3748 -0.00154488 80.0785 1.96093e-06H48.2124ZM42.9014 14.2622C42.9014 13.0014 43.461 11.7922 44.457 10.9006C45.453 10.009 46.8039 9.50815 48.2124 9.50815H80.0785C81.4871 9.50815 82.838 10.009 83.834 10.9006C84.83 11.7922 85.3895 13.0014 85.3895 14.2622C85.3895 15.5231 84.83 16.7323 83.834 17.6239C82.838 18.5154 81.4871 19.0163 80.0785 19.0163H48.2124C46.8039 19.0163 45.453 18.5154 44.457 17.6239C43.461 16.7323 42.9014 15.5231 42.9014 14.2622ZM85.3895 85.5733C79.7553 85.5733 74.3518 87.5768 70.3677 91.1431C66.3837 94.7093 64.1455 99.5462 64.1455 104.59V142.622C64.1455 147.666 66.3837 152.503 70.3677 156.069C74.3518 159.635 79.7553 161.639 85.3895 161.639H138.5C144.134 161.639 149.537 159.635 153.521 156.069C157.506 152.503 159.744 147.666 159.744 142.622V104.59C159.744 99.5462 157.506 94.7093 153.521 91.1431C149.537 87.5768 144.134 85.5733 138.5 85.5733H85.3895ZM85.3895 137.868C85.3895 136.607 85.9491 135.398 86.9451 134.507C87.9411 133.615 89.292 133.114 90.7005 133.114H133.189C134.597 133.114 135.948 133.615 136.944 134.507C137.94 135.398 138.5 136.607 138.5 137.868C138.5 139.129 137.94 140.338 136.944 141.23C135.948 142.121 134.597 142.622 133.189 142.622H90.7005C89.292 142.622 87.9411 142.121 86.9451 141.23C85.9491 140.338 85.3895 139.129 85.3895 137.868ZM85.3895 109.344C85.3895 108.083 85.9491 106.874 86.9451 105.982C87.9411 105.091 89.292 104.59 90.7005 104.59H133.189C134.597 104.59 135.948 105.091 136.944 105.982C137.94 106.874 138.5 108.083 138.5 109.344C138.5 110.605 137.94 111.814 136.944 112.705C135.948 113.597 134.597 114.098 133.189 114.098H90.7005C89.292 114.098 87.9411 113.597 86.9451 112.705C85.9491 111.814 85.3895 110.605 85.3895 109.344Z" fill="#4BA25D"/>
</svg>
