<svg width="126" height="128" viewBox="0 0 126 128" fill="none" xmlns="http://www.w3.org/2000/svg">
<path d="M118.576 4.12311L122.008 7.55504C126.737 12.2899 126.021 20.6836 120.397 26.3027L49.6233 97.0759L26.6934 105.464C23.8141 106.522 21.0104 105.15 20.4403 102.41C20.2477 101.416 20.3384 100.388 20.7021 99.4434L29.2528 76.3157L99.8283 5.73437C105.453 0.115319 113.847 -0.611783 118.576 4.12311ZM46.5346 11.1615C47.2985 11.1615 48.0549 11.3119 48.7606 11.6042C49.4663 11.8966 50.1076 12.325 50.6477 12.8652C51.1878 13.4053 51.6163 14.0466 51.9086 14.7523C52.201 15.458 52.3514 16.2144 52.3514 16.9783C52.3514 17.7422 52.201 18.4986 51.9086 19.2043C51.6163 19.91 51.1878 20.5513 50.6477 21.0914C50.1076 21.6315 49.4663 22.06 48.7606 22.3523C48.0549 22.6447 47.2985 22.7951 46.5346 22.7951H23.2673C20.1819 22.7951 17.2228 24.0208 15.0411 26.2025C12.8593 28.3843 11.6336 31.3433 11.6336 34.4288V104.231C11.6336 107.316 12.8593 110.275 15.0411 112.457C17.2228 114.639 20.1819 115.864 23.2673 115.864H93.0692C96.1546 115.864 99.1137 114.639 101.295 112.457C103.477 110.275 104.703 107.316 104.703 104.231V80.9633C104.703 79.4206 105.316 77.9411 106.407 76.8502C107.497 75.7594 108.977 75.1465 110.52 75.1465C112.062 75.1465 113.542 75.7594 114.633 76.8502C115.724 77.9411 116.336 79.4206 116.336 80.9633V104.231C116.336 110.402 113.885 116.32 109.522 120.683C105.158 125.047 99.24 127.498 93.0692 127.498H23.2673C17.0964 127.498 11.1783 125.047 6.81483 120.683C2.45137 116.32 0 110.402 0 104.231V34.4288C0 28.2579 2.45137 22.3398 6.81483 17.9763C11.1783 13.6128 17.0964 11.1615 23.2673 11.1615H46.5346Z" fill="#4BA25D"/>
</svg>
