<svg width="21" height="21" viewBox="0 0 21 21" fill="none" xmlns="http://www.w3.org/2000/svg">
<path d="M16.1553 20.9771H4.84465C2.16837 20.9771 0 18.799 0 16.1227V8.88501C0 7.55661 0.820465 5.88638 1.87535 5.06592L7.14 0.963591C8.72233 -0.267103 11.2521 -0.325707 12.893 0.826847L18.9293 5.05615C20.0916 5.86684 21 7.60545 21 9.02176V16.1325C21 18.799 18.8316 20.9771 16.1553 20.9771ZM8.0386 2.11615L2.77395 6.21847C2.08047 6.76545 1.46512 8.00591 1.46512 8.88501V16.1227C1.46512 17.9883 2.97907 19.512 4.84465 19.512H16.1553C18.0209 19.512 19.5349 17.998 19.5349 16.1325V9.02176C19.5349 8.08405 18.8609 6.78498 18.0893 6.25754L12.053 2.02824C10.9395 1.24685 9.10326 1.28592 8.0386 2.11615Z" fill="#282828"/>
<path d="M10.4962 17.0702C10.0958 17.0702 9.76367 16.7381 9.76367 16.3376V13.4074C9.76367 13.0069 10.0958 12.6748 10.4962 12.6748C10.8967 12.6748 11.2288 13.0069 11.2288 13.4074V16.3376C11.2288 16.7381 10.8967 17.0702 10.4962 17.0702Z" fill="#282828"/>
</svg>
