<svg width="27" height="27" viewBox="0 0 27 27" fill="none" xmlns="http://www.w3.org/2000/svg">
<path d="M7.875 0.255127C7.33193 0.254872 6.80214 0.405397 6.35864 0.685955C5.91514 0.966513 5.57977 1.36329 5.39875 1.82161H2.625C1.92881 1.82161 1.26113 2.06917 0.768844 2.50983C0.276561 2.95049 0 3.54816 0 4.17134V22.9692C0 23.5924 0.276561 24.19 0.768844 24.6307C1.26113 25.0714 1.92881 25.3189 2.625 25.3189H9.33975C9.07644 24.8236 8.89826 24.2954 8.81125 23.7524H2.625C2.39294 23.7524 2.17038 23.6699 2.00628 23.523C1.84219 23.3761 1.75 23.1769 1.75 22.9692V4.17134C1.75 3.96361 1.84219 3.76439 2.00628 3.61751C2.17038 3.47062 2.39294 3.3881 2.625 3.3881H5.39875C5.57977 3.84642 5.91514 4.2432 6.35864 4.52376C6.80214 4.80432 7.33193 4.95484 7.875 4.95459H13.125C13.6681 4.95484 14.1979 4.80432 14.6414 4.52376C15.0849 4.2432 15.4202 3.84642 15.6012 3.3881H18.375C18.6071 3.3881 18.8296 3.47062 18.9937 3.61751C19.1578 3.76439 19.25 3.96361 19.25 4.17134V12.787H21V4.17134C21 3.54816 20.7234 2.95049 20.2312 2.50983C19.7389 2.06917 19.0712 1.82161 18.375 1.82161H15.6012C15.4202 1.36329 15.0849 0.966513 14.6414 0.685955C14.1979 0.405397 13.6681 0.254872 13.125 0.255127H7.875ZM7 2.60486C7 2.39713 7.09219 2.19791 7.25628 2.05102C7.42038 1.90413 7.64294 1.82161 7.875 1.82161H13.125C13.3571 1.82161 13.5796 1.90413 13.7437 2.05102C13.9078 2.19791 14 2.39713 14 2.60486C14 2.81259 13.9078 3.01181 13.7437 3.15869C13.5796 3.30558 13.3571 3.3881 13.125 3.3881H7.875C7.64294 3.3881 7.42038 3.30558 7.25628 3.15869C7.09219 3.01181 7 2.81259 7 2.60486ZM14 14.3535C13.0717 14.3535 12.1815 14.6836 11.5251 15.2711C10.8687 15.8587 10.5 16.6556 10.5 17.4865V23.7524C10.5 24.5833 10.8687 25.3802 11.5251 25.9678C12.1815 26.5553 13.0717 26.8854 14 26.8854H22.75C23.6783 26.8854 24.5685 26.5553 25.2249 25.9678C25.8813 25.3802 26.25 24.5833 26.25 23.7524V17.4865C26.25 16.6556 25.8813 15.8587 25.2249 15.2711C24.5685 14.6836 23.6783 14.3535 22.75 14.3535H14ZM14 22.9692C14 22.7615 14.0922 22.5622 14.2563 22.4153C14.4204 22.2685 14.6429 22.1859 14.875 22.1859H21.875C22.1071 22.1859 22.3296 22.2685 22.4937 22.4153C22.6578 22.5622 22.75 22.7615 22.75 22.9692C22.75 23.1769 22.6578 23.3761 22.4937 23.523C22.3296 23.6699 22.1071 23.7524 21.875 23.7524H14.875C14.6429 23.7524 14.4204 23.6699 14.2563 23.523C14.0922 23.3761 14 23.1769 14 22.9692ZM14 18.2697C14 18.062 14.0922 17.8628 14.2563 17.7159C14.4204 17.569 14.6429 17.4865 14.875 17.4865H21.875C22.1071 17.4865 22.3296 17.569 22.4937 17.7159C22.6578 17.8628 22.75 18.062 22.75 18.2697C22.75 18.4775 22.6578 18.6767 22.4937 18.8236C22.3296 18.9704 22.1071 19.053 21.875 19.053H14.875C14.6429 19.053 14.4204 18.9704 14.2563 18.8236C14.0922 18.6767 14 18.4775 14 18.2697Z" fill="#282828"/>
</svg>
