<svg width="21" height="22" viewBox="0 0 21 22" fill="none" xmlns="http://www.w3.org/2000/svg">
<path d="M19.8813 1.41835L20.4467 1.98376C21.2259 2.76385 21.108 4.14672 20.1813 5.07247L8.52125 16.7325L4.74349 18.1144C4.26912 18.2888 3.8072 18.0627 3.71329 17.6113C3.68155 17.4476 3.69649 17.2782 3.75641 17.1226L5.16516 13.3122L16.7926 1.68381C17.7193 0.758056 19.1022 0.638264 19.8813 1.41835ZM8.01237 2.57793C8.13822 2.57793 8.26284 2.60272 8.37911 2.65088C8.49538 2.69904 8.60102 2.76963 8.69001 2.85862C8.779 2.94761 8.84959 3.05326 8.89775 3.16953C8.94592 3.2858 8.9707 3.41041 8.9707 3.53626C8.9707 3.66211 8.94592 3.78673 8.89775 3.903C8.84959 4.01927 8.779 4.12492 8.69001 4.21391C8.60102 4.3029 8.49538 4.37349 8.37911 4.42165C8.26284 4.46981 8.13822 4.4946 8.01237 4.4946H4.17904C3.6707 4.4946 3.18319 4.69653 2.82375 5.05598C2.4643 5.41542 2.26237 5.90293 2.26237 6.41126V17.9113C2.26237 18.4196 2.4643 18.9071 2.82375 19.2665C3.18319 19.626 3.6707 19.8279 4.17904 19.8279H15.679C16.1874 19.8279 16.6749 19.626 17.0343 19.2665C17.3938 18.9071 17.5957 18.4196 17.5957 17.9113V14.0779C17.5957 13.8238 17.6967 13.58 17.8764 13.4003C18.0561 13.2206 18.2999 13.1196 18.554 13.1196C18.8082 13.1196 19.052 13.2206 19.2317 13.4003C19.4114 13.58 19.5124 13.8238 19.5124 14.0779V17.9113C19.5124 18.9279 19.1085 19.9029 18.3896 20.6218C17.6707 21.3407 16.6957 21.7446 15.679 21.7446H4.17904C3.16237 21.7446 2.18735 21.3407 1.46846 20.6218C0.749571 19.9029 0.345703 18.9279 0.345703 17.9113V6.41126C0.345703 5.3946 0.749571 4.41958 1.46846 3.70069C2.18735 2.9818 3.16237 2.57793 4.17904 2.57793H8.01237Z" fill="#0D173B"/>
</svg>
