<svg width="40" height="37" viewBox="0 0 40 37" fill="none" xmlns="http://www.w3.org/2000/svg">
<path fill-rule="evenodd" clip-rule="evenodd" d="M34.0004 4.48196V11C34.7883 11 35.5685 11.1551 36.2965 11.4567C37.0244 11.7582 37.6858 12.2002 38.243 12.7573C38.8002 13.3145 39.2421 13.9759 39.5436 14.7039C39.8452 15.4318 40.0004 16.212 40.0004 17C40.0004 17.7879 39.8452 18.5681 39.5436 19.2961C39.2421 20.024 38.8002 20.6854 38.243 21.2426C37.6858 21.7997 37.0244 22.2417 36.2965 22.5432C35.5685 22.8448 34.7883 23 34.0004 23V29C34.0004 32.296 30.2384 34.178 27.6004 32.2L23.4804 29.108C21.2781 27.4567 18.7139 26.3542 16.0004 25.892V31.58C16.0006 32.8874 15.5281 34.1509 14.6702 35.1375C13.8122 36.1241 12.6265 36.7673 11.3316 36.9485C10.0367 37.1298 8.71999 36.8368 7.62411 36.1237C6.52823 35.4105 5.72709 34.3253 5.36835 33.068L2.22835 22.076C1.09839 20.7415 0.363024 19.1184 0.104924 17.389C-0.153177 15.6596 0.0762169 13.8924 0.767319 12.2862C1.45842 10.68 2.58383 9.29844 4.01705 8.29675C5.45027 7.29506 7.13448 6.71299 8.88035 6.61596L14.9164 6.27996C17.8696 6.11561 20.7416 5.25263 23.2964 3.76196L27.9844 1.02596C30.6524 -0.528043 34.0004 1.39396 34.0004 4.48196ZM7.26835 25.156L9.21435 31.97C9.308 32.2998 9.51784 32.5846 9.8051 32.7718C10.0924 32.959 10.4377 33.0359 10.7772 32.9884C11.1168 32.9408 11.4277 32.7721 11.6525 32.5132C11.8773 32.2543 12.0009 31.9228 12.0004 31.58V25.56L8.88035 25.386C8.3374 25.3558 7.79806 25.2789 7.26835 25.156ZM30.0004 4.48196L25.3104 7.21996C22.4611 8.88084 19.284 9.90052 16.0004 10.208V21.846C19.5744 22.338 22.9764 23.732 25.8804 25.908L30.0004 29V4.48196ZM12.0004 10.448L9.10035 10.608C7.75124 10.6824 6.47908 11.26 5.53498 12.2266C4.59088 13.1932 4.04345 14.4786 4.00076 15.8291C3.95806 17.1796 4.4232 18.497 5.30435 19.5213C6.1855 20.5456 7.41864 21.2024 8.76035 21.362L9.10035 21.392L12.0004 21.552V10.448ZM34.0004 15V19C34.5101 18.9994 35.0004 18.8042 35.3711 18.4543C35.7418 18.1043 35.9648 17.626 35.9947 17.1172C36.0246 16.6083 35.859 16.1072 35.5318 15.7163C35.2047 15.3254 34.7406 15.0742 34.2344 15.014L34.0004 15Z" fill="#333333"/>
</svg>
