<svg width="36" height="37" viewBox="0 0 36 37" fill="none" xmlns="http://www.w3.org/2000/svg">
<path d="M18 27.4583V27.4762M2.25 18.5C2.25 20.6176 2.65739 22.7144 3.4489 24.6708C4.24041 26.6271 5.40055 28.4048 6.86307 29.9021C8.32559 31.3994 10.0619 32.5872 11.9727 33.3976C13.8836 34.2079 15.9317 34.625 18 34.625C20.0683 34.625 22.1164 34.2079 24.0273 33.3976C25.9381 32.5872 27.6744 31.3994 29.1369 29.9021C30.5995 28.4048 31.7596 26.6271 32.5511 24.6708C33.3426 22.7144 33.75 20.6176 33.75 18.5C33.75 16.3824 33.3426 14.2856 32.5511 12.3292C31.7596 10.3729 30.5995 8.59525 29.1369 7.0979C27.6744 5.60056 25.9381 4.4128 24.0273 3.60244C22.1164 2.79209 20.0683 2.375 18 2.375C15.9317 2.375 13.8836 2.79209 11.9727 3.60244C10.0619 4.4128 8.32559 5.60056 6.86307 7.0979C5.40055 8.59525 4.24041 10.3729 3.4489 12.3292C2.65739 14.2856 2.25 16.3824 2.25 18.5Z" stroke="black" stroke-width="2.91667" stroke-linecap="round" stroke-linejoin="round"/>
<path d="M18 21.1875C17.9678 20.6058 18.121 20.0293 18.4367 19.5445C18.7523 19.0598 19.2132 18.6932 19.75 18.5C20.4078 18.2424 20.9982 17.8321 21.4747 17.3013C21.9513 16.7704 22.301 16.1336 22.4963 15.4409C22.6916 14.7481 22.7272 14.0185 22.6003 13.3093C22.4733 12.6001 22.1873 11.9307 21.7648 11.3539C21.3423 10.7771 20.7947 10.3086 20.1653 9.98529C19.5358 9.66195 18.8417 9.49262 18.1374 9.49062C17.4332 9.48862 16.7381 9.65401 16.1069 9.97376C15.4757 10.2935 14.9257 10.7589 14.5 11.3333" stroke="black" stroke-width="2.91667" stroke-linecap="round" stroke-linejoin="round"/>
</svg>
