<svg width="18" height="16" viewBox="0 0 18 16" fill="none" xmlns="http://www.w3.org/2000/svg">
<path fillRule="evenodd" clipRule="evenodd" d="M15.2999 1.75495V4.61019C15.6545 4.61019 16.0056 4.67817 16.3332 4.81026C16.6608 4.94235 16.9584 5.13595 17.2092 5.38001C17.4599 5.62407 17.6588 5.91382 17.7945 6.2327C17.9302 6.55158 18 6.89336 18 7.23852C18 7.58367 17.9302 7.92545 17.7945 8.24433C17.6588 8.56322 17.4599 8.85296 17.2092 9.09702C16.9584 9.34109 16.6608 9.53469 16.3332 9.66677C16.0056 9.79886 15.6545 9.86684 15.2999 9.86684V12.4952C15.2999 13.939 13.6069 14.7634 12.4198 13.8969L10.5657 12.5425C9.57463 11.8191 8.42069 11.3362 7.19957 11.1337V13.6253C7.19966 14.1981 6.98706 14.7516 6.60095 15.1838C6.21484 15.6159 5.68125 15.8977 5.09854 15.9771C4.51582 16.0565 3.92327 15.9281 3.43011 15.6157C2.93694 15.3033 2.57641 14.8279 2.41498 14.2772L1.00192 9.46208C0.493415 8.87753 0.162488 8.1665 0.0463386 7.40893C-0.0698112 6.65135 0.03342 5.87725 0.344428 5.17365C0.655437 4.47005 1.16189 3.86483 1.80687 3.42604C2.45184 2.98725 3.20976 2.73227 3.99544 2.68976L6.71175 2.54258C8.04076 2.47058 9.33323 2.09255 10.4829 1.43956L12.5926 0.241039C13.7932 -0.439697 15.2999 0.402243 15.2999 1.75495ZM3.27001 10.8113L4.14574 13.7962C4.18789 13.9407 4.28232 14.0654 4.41159 14.1474C4.54086 14.2294 4.69625 14.2631 4.84906 14.2423C5.00187 14.2215 5.14178 14.1476 5.24295 14.0341C5.34412 13.9207 5.39973 13.7755 5.39949 13.6253V10.9883L3.99544 10.912C3.7511 10.8988 3.50839 10.8651 3.27001 10.8113ZM13.4998 1.75495L11.3892 2.95435C10.107 3.6819 8.67726 4.12858 7.19957 4.26325V9.36133C8.80793 9.57685 10.3389 10.1875 11.6457 11.1407L13.4998 12.4952V1.75495ZM5.39949 4.36838L4.09444 4.43847C3.48732 4.47111 2.91482 4.7241 2.48996 5.14753C2.0651 5.57095 1.81875 6.13403 1.79953 6.72562C1.78032 7.3172 1.98964 7.89431 2.38617 8.34301C2.78271 8.79171 3.33764 9.07941 3.94144 9.14931L4.09444 9.16245L5.39949 9.23254V4.36838ZM15.2999 6.36241V8.11462C15.5293 8.11438 15.7499 8.02887 15.9167 7.87558C16.0836 7.72229 16.1839 7.51278 16.1974 7.28986C16.2108 7.06694 16.1363 6.84744 15.9891 6.6762C15.8418 6.50496 15.633 6.39491 15.4052 6.36854L15.2999 6.36241Z" fill="black"/>
</svg>
