<svg width="18" height="17" viewBox="0 0 18 17" fill="none" xmlns="http://www.w3.org/2000/svg">
<path d="M5.44444 16H12.5556M9 12.4706V16M9 12.4706C10.1787 12.4706 11.3092 12.0058 12.1427 11.1784C12.9762 10.351 13.4444 9.2289 13.4444 8.05882V1H4.55556V8.05882C4.55556 9.2289 5.02381 10.351 5.8573 11.1784C6.6908 12.0058 7.82126 12.4706 9 12.4706ZM1 5.41176C1 5.87979 1.1873 6.32865 1.5207 6.6596C1.8541 6.99055 2.30628 7.17647 2.77778 7.17647C3.24927 7.17647 3.70146 6.99055 4.03486 6.6596C4.36825 6.32865 4.55556 5.87979 4.55556 5.41176C4.55556 4.94374 4.36825 4.49488 4.03486 4.16393C3.70146 3.83298 3.24927 3.64706 2.77778 3.64706C2.30628 3.64706 1.8541 3.83298 1.5207 4.16393C1.1873 4.49488 1 4.94374 1 5.41176ZM13.4444 5.41176C13.4444 5.87979 13.6317 6.32865 13.9651 6.6596C14.2985 6.99055 14.7507 7.17647 15.2222 7.17647C15.6937 7.17647 16.1459 6.99055 16.4793 6.6596C16.8127 6.32865 17 5.87979 17 5.41176C17 4.94374 16.8127 4.49488 16.4793 4.16393C16.1459 3.83298 15.6937 3.64706 15.2222 3.64706C14.7507 3.64706 14.2985 3.83298 13.9651 4.16393C13.6317 4.49488 13.4444 4.94374 13.4444 5.41176Z" stroke="black" stroke-width="2" stroke-linecap="round" stroke-linejoin="round"/>
</svg>
