<svg width="12" height="16" viewBox="0 0 12 16" fill="none" xmlns="http://www.w3.org/2000/svg">
<path d="M1.01757 15.8811C0.92146 15.9488 0.808202 15.9891 0.69026 15.9977C0.572317 16.0062 0.454259 15.9827 0.349072 15.9295C0.243885 15.8764 0.155646 15.7958 0.0940595 15.6967C0.0324733 15.5975 -7.34631e-05 15.4835 1.24509e-07 15.3673V2.73739C1.24509e-07 2.01139 0.293536 1.31512 0.816034 0.801763C1.33853 0.288403 2.04719 0 2.78611 0H9.21389C9.95281 0 10.6615 0.288403 11.184 0.801763C11.7065 1.31512 12 2.01139 12 2.73739V15.3681C12 15.4844 11.9674 15.5984 11.9057 15.6976C11.844 15.7968 11.7557 15.8774 11.6504 15.9304C11.545 15.9835 11.4269 16.0069 11.3089 15.9982C11.1909 15.9895 11.0776 15.949 10.9816 15.8811L6.00086 12.3595L1.01843 15.8802L1.01757 15.8811ZM10.715 2.73739C10.715 2.34647 10.5569 1.97156 10.2756 1.69513C9.99421 1.41871 9.61263 1.26341 9.21475 1.26341H2.78611C2.38823 1.26341 2.00665 1.41871 1.7253 1.69513C1.44396 1.97156 1.2859 2.34647 1.2859 2.73739V14.135L5.62452 11.0683C5.7339 10.991 5.86525 10.9494 6 10.9494C6.13475 10.9494 6.2661 10.991 6.37548 11.0683L10.7141 14.135V2.73739H10.715Z" fill="black"/>
</svg>
