<svg width="17" height="18" viewBox="0 0 17 18" fill="none" xmlns="http://www.w3.org/2000/svg">
<path d="M1.75394 0.0256042H9.64666C10.1118 0.0256042 10.558 0.210393 10.8869 0.539321C11.2158 0.868248 11.4006 1.31437 11.4006 1.77954V3.53348H9.64666V1.77954H1.75394V15.811H9.64666V14.0571H11.4006V15.811C11.4006 16.2762 11.2158 16.7223 10.8869 17.0513C10.558 17.3802 10.1118 17.565 9.64666 17.565H1.75394C1.28876 17.565 0.842643 17.3802 0.513716 17.0513C0.184789 16.7223 0 16.2762 0 15.811V1.77954C0 1.31437 0.184789 0.868248 0.513716 0.539321C0.842643 0.210393 1.28876 0.0256042 1.75394 0.0256042Z" fill="black"/>
<path d="M10.6025 11.9436L11.839 13.1801L16.2238 8.79529L11.839 4.41045L10.6025 5.64698L12.8651 7.91832H4.38477V9.67226H12.8651L10.6025 11.9436Z" fill="black"/>
</svg>
