<svg width="255" height="241" viewBox="0 0 255 241" fill="none" xmlns="http://www.w3.org/2000/svg">
<path d="M213.854 151.843C215.055 152.394 217.988 152.301 217.994 152.301C217.999 152.301 217.36 150.377 217.305 150.261C216.66 148.916 214.625 146.688 212.966 146.914C212.692 146.959 212.43 147.061 212.198 147.214C211.966 147.367 211.769 147.567 211.619 147.801C211.469 148.035 211.37 148.298 211.329 148.572C211.287 148.847 211.304 149.127 211.378 149.395C211.654 150.542 212.828 151.396 213.854 151.843Z" fill="#263238"/>
<path d="M214.879 160.378C216.125 160.56 218.738 159.799 218.953 159.738C219.383 161.242 219.913 162.716 220.541 164.149C220.899 164.981 221.291 165.802 221.693 166.635C221.451 166.288 221.236 165.973 221.202 165.935C220.221 164.805 217.669 163.178 216.131 163.851C215.878 163.966 215.653 164.134 215.469 164.343C215.286 164.551 215.148 164.796 215.065 165.061C214.983 165.326 214.957 165.606 214.989 165.882C215.022 166.158 215.112 166.424 215.254 166.662C215.805 167.699 217.184 168.212 218.286 168.371C219.389 168.531 221.655 167.93 222.25 167.765C222.404 168.079 222.559 168.399 222.719 168.713C223.474 170.224 224.24 171.729 224.924 173.223C225.172 173.774 225.392 174.281 225.624 174.811C225.409 174.502 225.227 174.259 225.194 174.204C224.218 173.074 221.666 171.448 220.127 172.12C219.874 172.235 219.648 172.402 219.464 172.611C219.28 172.819 219.142 173.064 219.06 173.33C218.977 173.595 218.951 173.875 218.984 174.151C219.017 174.427 219.108 174.693 219.251 174.932C219.802 175.968 221.18 176.481 222.283 176.641C223.386 176.801 225.431 176.255 226.142 176.062C226.357 176.613 226.578 177.165 226.76 177.716C226.881 178.091 227.019 178.438 227.118 178.818C227.217 179.199 227.322 179.568 227.427 179.921C227.598 180.638 227.779 181.371 227.928 182.077C228.039 182.562 228.132 183.03 228.226 183.499C227.983 182.948 227.493 181.944 227.443 181.845C226.649 180.583 224.367 178.603 222.746 179.017C222.478 179.093 222.23 179.225 222.017 179.404C221.803 179.583 221.63 179.804 221.508 180.054C221.385 180.304 221.317 180.577 221.307 180.855C221.298 181.134 221.346 181.411 221.451 181.669C221.859 182.771 223.104 183.488 224.207 183.813C225.381 184.172 227.978 183.846 228.303 183.813C228.463 184.591 228.606 185.346 228.728 186.062C229.169 188.549 229.439 190.633 229.604 192.094C229.637 192.353 229.659 192.584 229.687 192.805H224.648L224.99 199.475H236.567L236.909 192.805H232.217C232.25 192.733 232.284 192.661 232.322 192.59C232.962 191.245 233.855 189.321 234.819 186.961C235.128 186.217 235.437 185.417 235.751 184.591C236.065 184.657 238.64 185.18 239.842 184.91C240.944 184.662 242.251 184.045 242.736 182.97C242.863 182.719 242.934 182.444 242.947 182.164C242.959 181.883 242.911 181.603 242.807 181.343C242.703 181.082 242.544 180.846 242.342 180.652C242.139 180.457 241.898 180.307 241.633 180.213C240.046 179.662 237.626 181.481 236.738 182.683C236.688 182.755 236.187 183.587 235.911 184.116C236.038 183.78 236.159 183.449 236.286 183.102C236.54 182.413 236.771 181.718 237.025 180.969C237.135 180.601 237.245 180.233 237.355 179.866C237.477 179.502 237.554 179.094 237.653 178.708C237.868 177.804 238.045 176.872 238.204 175.952C238.811 176.172 240.961 176.922 242.063 176.845C243.166 176.768 244.572 176.36 245.217 175.367C245.377 175.14 245.487 174.881 245.541 174.609C245.594 174.336 245.59 174.055 245.527 173.784C245.465 173.513 245.346 173.258 245.179 173.036C245.011 172.814 244.799 172.63 244.555 172.495C243.067 171.729 240.399 173.146 239.34 174.199C239.274 174.265 238.601 175.103 238.237 175.577C238.326 175.026 238.419 174.447 238.491 173.873C238.695 172.219 238.855 170.527 239.015 168.846C239.064 168.333 239.125 167.82 239.175 167.307C239.39 167.385 241.931 168.333 243.188 168.245C244.291 168.167 245.697 167.759 246.342 166.767C246.502 166.54 246.612 166.282 246.665 166.01C246.719 165.737 246.714 165.456 246.652 165.186C246.589 164.915 246.471 164.661 246.303 164.439C246.136 164.218 245.923 164.034 245.68 163.9C244.191 163.134 241.523 164.545 240.465 165.598C240.388 165.681 239.417 166.894 239.186 167.214C239.307 166.084 239.434 164.959 239.61 163.851C239.833 162.361 240.156 160.887 240.575 159.44C240.674 159.479 243.331 160.482 244.605 160.389C245.708 160.311 247.119 159.904 247.764 158.911C247.923 158.684 248.032 158.425 248.085 158.153C248.137 157.88 248.132 157.6 248.069 157.329C248.006 157.059 247.887 156.805 247.72 156.583C247.552 156.362 247.34 156.178 247.097 156.044C245.608 155.278 242.946 156.689 241.887 157.742C241.804 157.825 240.784 159.132 240.586 159.396C240.614 159.314 240.63 159.225 240.652 159.143C241.113 157.699 241.7 156.299 242.405 154.958C242.786 154.214 243.188 153.525 243.602 152.863C244.076 153.101 246.259 154.159 247.422 154.203C248.585 154.247 249.969 153.999 250.73 153.101C250.913 152.891 251.05 152.646 251.132 152.381C251.214 152.115 251.24 151.836 251.207 151.56C251.175 151.284 251.084 151.018 250.942 150.779C250.8 150.54 250.609 150.334 250.383 150.173C248.988 149.247 246.187 150.361 245.018 151.276C244.952 151.325 244.362 151.915 243.943 152.345C244.131 152.048 244.318 151.739 244.495 151.463C245.195 150.405 245.901 149.484 246.534 148.674C246.898 148.216 247.235 147.808 247.554 147.428C248.139 147.428 250.509 147.345 251.546 146.876C252.582 146.408 253.707 145.52 253.955 144.363C254.022 144.093 254.031 143.812 253.982 143.539C253.933 143.265 253.827 143.005 253.671 142.775C253.515 142.546 253.313 142.351 253.077 142.205C252.841 142.058 252.576 141.963 252.301 141.926C250.647 141.749 248.662 144.026 248.056 145.393C248.001 145.509 247.395 147.45 247.422 147.45H247.461C247.146 147.803 246.81 148.194 246.457 148.624C245.807 149.423 245.079 150.328 244.351 151.381C243.549 152.494 242.813 153.654 242.146 154.854C241.402 156.194 240.778 157.598 240.283 159.049C240.285 159.067 240.285 159.086 240.283 159.104C240.283 158.614 240.283 157.241 240.283 157.136C240.09 155.653 238.849 152.902 237.201 152.599C236.926 152.556 236.646 152.571 236.378 152.644C236.109 152.717 235.859 152.845 235.644 153.021C235.429 153.197 235.253 153.416 235.128 153.664C235.003 153.913 234.932 154.185 234.919 154.462C234.819 155.637 235.674 156.816 236.506 157.561C237.444 158.399 240.051 159.214 240.261 159.275C239.789 160.762 239.421 162.28 239.158 163.818C238.998 164.716 238.866 165.62 238.745 166.53C238.745 166.106 238.745 165.731 238.745 165.676C238.552 164.193 237.311 161.442 235.663 161.138C235.388 161.096 235.108 161.113 234.84 161.186C234.572 161.259 234.323 161.387 234.108 161.563C233.893 161.739 233.717 161.957 233.591 162.205C233.466 162.453 233.394 162.724 233.381 163.002C233.287 164.182 234.136 165.356 234.968 166.1C235.801 166.844 238.022 167.594 238.607 167.754C238.568 168.107 238.519 168.454 238.475 168.807C238.276 170.461 238.083 172.159 237.846 173.796C237.758 174.347 237.653 174.943 237.554 175.505C237.554 175.13 237.554 174.816 237.554 174.766C237.361 173.283 236.121 170.532 234.478 170.229C234.203 170.187 233.923 170.203 233.655 170.276C233.387 170.35 233.137 170.478 232.922 170.654C232.707 170.829 232.531 171.048 232.406 171.296C232.281 171.544 232.209 171.815 232.195 172.093C232.096 173.267 232.951 174.447 233.783 175.191C234.615 175.935 236.617 176.608 237.317 176.845C237.196 177.424 237.074 178.003 236.925 178.554C236.821 178.929 236.743 179.298 236.617 179.656C236.49 180.015 236.38 180.395 236.258 180.759C236.01 181.448 235.751 182.165 235.492 182.832C235.316 183.295 235.134 183.736 234.941 184.183C235.029 183.631 235.183 182.479 235.183 182.385C235.163 181.072 234.808 179.785 234.152 178.648C234.157 178.5 234.148 178.352 234.125 178.207C234.088 177.933 233.994 177.67 233.849 177.435C233.704 177.199 233.511 176.997 233.283 176.841C233.054 176.685 232.796 176.579 232.524 176.529C232.252 176.48 231.973 176.488 231.705 176.553C230.089 176.983 229.064 179.816 228.987 181.31C228.987 181.399 229.042 182.358 229.086 182.964C229.003 182.611 228.932 182.27 228.843 181.911C228.673 181.195 228.48 180.483 228.292 179.706C228.182 179.342 228.072 178.973 227.956 178.603C227.84 178.234 227.697 177.854 227.564 177.473C227.245 176.602 226.881 175.731 226.489 174.86C227.118 174.711 229.329 174.149 230.222 173.465C231.115 172.782 232.046 171.674 232.035 170.494C232.043 170.216 231.993 169.939 231.886 169.682C231.78 169.425 231.621 169.193 231.419 169.002C231.217 168.81 230.977 168.664 230.715 168.571C230.453 168.479 230.174 168.443 229.896 168.465C228.243 168.647 226.793 171.299 226.489 172.76C226.489 172.853 226.374 173.923 226.33 174.518C226.092 173.995 225.855 173.476 225.602 172.958C224.858 171.459 224.058 169.965 223.264 168.476C223.022 168.019 222.79 167.561 222.548 167.103C222.774 167.054 225.42 166.436 226.407 165.67C227.289 164.992 228.232 163.884 228.22 162.699C228.228 162.421 228.178 162.144 228.071 161.888C227.965 161.631 227.806 161.399 227.604 161.208C227.402 161.017 227.162 160.871 226.9 160.779C226.637 160.687 226.358 160.652 226.081 160.675C224.428 160.857 222.978 163.503 222.674 164.97C222.674 165.08 222.509 166.624 222.498 167.021C221.974 166.012 221.462 164.998 220.993 163.983C220.35 162.615 219.798 161.206 219.339 159.766C219.444 159.766 222.206 159.115 223.226 158.332C224.113 157.654 225.051 156.541 225.045 155.361C225.052 155.083 225.001 154.807 224.894 154.55C224.788 154.293 224.628 154.062 224.427 153.871C224.225 153.679 223.986 153.533 223.724 153.44C223.462 153.347 223.183 153.31 222.906 153.332C221.252 153.514 219.797 156.166 219.499 157.627C219.471 157.742 219.323 159.407 219.317 159.711C219.317 159.628 219.256 159.54 219.234 159.457C218.82 158 218.536 156.51 218.385 155.003C218.292 154.176 218.248 153.376 218.225 152.599C218.777 152.533 221.158 152.213 222.156 151.607C223.154 151 224.163 150.03 224.284 148.85C224.323 148.575 224.303 148.294 224.226 148.027C224.149 147.76 224.017 147.512 223.837 147.299C223.658 147.087 223.435 146.915 223.184 146.795C222.934 146.674 222.66 146.608 222.382 146.601C220.728 146.601 218.986 149.071 218.523 150.493C218.496 150.57 218.33 151.386 218.214 151.976C218.214 151.629 218.214 151.265 218.214 150.928C218.214 149.66 218.297 148.503 218.38 147.477C218.429 146.893 218.485 146.375 218.545 145.879C219.025 145.548 220.96 144.181 221.555 143.205C222.151 142.229 222.614 140.878 222.178 139.776C222.083 139.516 221.935 139.278 221.743 139.079C221.55 138.88 221.318 138.723 221.062 138.619C220.805 138.515 220.529 138.466 220.253 138.476C219.976 138.485 219.704 138.552 219.455 138.673C217.966 139.445 217.575 142.433 217.801 143.91C217.801 144.037 218.385 145.989 218.407 145.972H218.435C218.374 146.446 218.308 146.954 218.248 147.505C218.148 148.53 218.044 149.71 218.01 150.962C217.963 152.33 217.996 153.699 218.11 155.063C218.228 156.592 218.482 158.106 218.871 159.589V159.644C218.606 159.231 217.834 158.101 217.768 157.991C216.792 156.888 214.24 155.234 212.696 155.907C212.443 156.022 212.218 156.19 212.035 156.398C211.851 156.607 211.713 156.852 211.631 157.117C211.548 157.382 211.522 157.662 211.555 157.938C211.587 158.214 211.677 158.48 211.819 158.718C212.398 159.677 213.777 160.19 214.879 160.378ZM231.468 182.303C232.322 183.229 234.516 184.315 234.803 184.453C234.5 185.186 234.202 185.897 233.915 186.564C232.906 188.88 231.98 190.771 231.319 192.077C231.186 192.342 231.065 192.579 230.949 192.794H230.839C230.806 192.535 230.773 192.243 230.729 191.945C230.525 190.467 230.178 188.367 229.709 185.881C229.555 185.092 229.373 184.227 229.158 183.389C229.945 183.063 230.713 182.691 231.457 182.275L231.468 182.303Z" fill="#56A661"/>
<path d="M243.546 152.488C243.574 152.488 244.097 150.537 244.097 150.41C244.301 148.932 243.827 145.95 242.322 145.222C242.069 145.108 241.794 145.048 241.516 145.047C241.238 145.046 240.963 145.103 240.709 145.216C240.454 145.328 240.226 145.493 240.04 145.699C239.854 145.905 239.713 146.148 239.626 146.413C239.224 147.515 239.737 148.888 240.343 149.825C241.065 150.922 243.546 152.488 243.546 152.488Z" fill="#56A661"/>
<path d="M240.91 27.4219H183.454V103.875H240.91V27.4219Z" stroke="#56A661" stroke-linecap="round" stroke-linejoin="round"/>
<path d="M237.718 31.666H186.646V99.6241H237.718V31.666Z" stroke="#56A661" stroke-linecap="round" stroke-linejoin="round"/>
<path d="M220.164 55.0312H204.204V76.2671H220.164V55.0312Z" stroke="#56A661" stroke-linecap="round" stroke-linejoin="round"/>
<path d="M119.767 4.21875H20.4844V199.361H119.767V4.21875Z" stroke="#56A661" stroke-linecap="round" stroke-linejoin="round"/>
<path d="M67.735 13.1055H30.043V53.4547H67.735V13.1055Z" stroke="#56A661" stroke-linecap="round" stroke-linejoin="round"/>
<path d="M61.9747 19.2734H35.8047V47.2847H61.9747V19.2734Z" stroke="#56A661" stroke-linecap="round" stroke-linejoin="round"/>
<path d="M35.804 19.2745L30.043 13.1055" stroke="#56A661" stroke-linecap="round" stroke-linejoin="round"/>
<path d="M61.9746 47.2871L67.7356 53.4561" stroke="#56A661" stroke-linecap="round" stroke-linejoin="round"/>
<path d="M61.9746 19.2745L67.7356 13.1055" stroke="#56A661" stroke-linecap="round" stroke-linejoin="round"/>
<path d="M35.804 47.2871L30.043 53.4561" stroke="#56A661" stroke-linecap="round" stroke-linejoin="round"/>
<path d="M112.562 13.1055H74.8701V53.4547H112.562V13.1055Z" stroke="#56A661" stroke-linecap="round" stroke-linejoin="round"/>
<path d="M106.807 19.2734H80.6367V47.2847H106.807V19.2734Z" stroke="#56A661" stroke-linecap="round" stroke-linejoin="round"/>
<path d="M80.6367 19.2745L74.8701 13.1055" stroke="#56A661" stroke-linecap="round" stroke-linejoin="round"/>
<path d="M106.801 47.2871L112.567 53.4561" stroke="#56A661" stroke-linecap="round" stroke-linejoin="round"/>
<path d="M106.801 19.2745L112.567 13.1055" stroke="#56A661" stroke-linecap="round" stroke-linejoin="round"/>
<path d="M80.6367 47.2871L74.8701 53.4561" stroke="#56A661" stroke-linecap="round" stroke-linejoin="round"/>
<path d="M67.735 63.7305H30.043V104.08H67.735V63.7305Z" stroke="#56A661" stroke-linecap="round" stroke-linejoin="round"/>
<path d="M61.9747 69.9004H35.8047V97.9117H61.9747V69.9004Z" stroke="#56A661" stroke-linecap="round" stroke-linejoin="round"/>
<path d="M35.804 69.8995L30.043 63.7305" stroke="#56A661" stroke-linecap="round" stroke-linejoin="round"/>
<path d="M61.9746 97.9121L67.7356 104.081" stroke="#56A661" stroke-linecap="round" stroke-linejoin="round"/>
<path d="M61.9746 69.8995L67.7356 63.7305" stroke="#56A661" stroke-linecap="round" stroke-linejoin="round"/>
<path d="M35.804 97.9121L30.043 104.081" stroke="#56A661" stroke-linecap="round" stroke-linejoin="round"/>
<path d="M112.562 63.7305H74.8701V104.08H112.562V63.7305Z" stroke="#56A661" stroke-linecap="round" stroke-linejoin="round"/>
<path d="M106.807 69.9004H80.6367V97.9117H106.807V69.9004Z" stroke="#56A661" stroke-linecap="round" stroke-linejoin="round"/>
<path d="M80.6367 69.8995L74.8701 63.7305" stroke="#56A661" stroke-linecap="round" stroke-linejoin="round"/>
<path d="M106.801 97.9121L112.567 104.081" stroke="#56A661" stroke-linecap="round" stroke-linejoin="round"/>
<path d="M106.801 69.8995L112.567 63.7305" stroke="#56A661" stroke-linecap="round" stroke-linejoin="round"/>
<path d="M80.6367 97.9121L74.8701 104.081" stroke="#56A661" stroke-linecap="round" stroke-linejoin="round"/>
<path d="M67.735 114.355H30.043V154.705H67.735V114.355Z" stroke="#56A661" stroke-linecap="round" stroke-linejoin="round"/>
<path d="M61.9747 120.525H35.8047V148.537H61.9747V120.525Z" stroke="#56A661" stroke-linecap="round" stroke-linejoin="round"/>
<path d="M35.804 120.524L30.043 114.355" stroke="#56A661" stroke-linecap="round" stroke-linejoin="round"/>
<path d="M61.9746 148.537L67.7356 154.706" stroke="#56A661" stroke-linecap="round" stroke-linejoin="round"/>
<path d="M61.9746 120.524L67.7356 114.355" stroke="#56A661" stroke-linecap="round" stroke-linejoin="round"/>
<path d="M35.804 148.537L30.043 154.706" stroke="#56A661" stroke-linecap="round" stroke-linejoin="round"/>
<path d="M112.562 114.355H74.8701V154.705H112.562V114.355Z" stroke="#56A661" stroke-linecap="round" stroke-linejoin="round"/>
<path d="M106.807 120.525H80.6367V148.537H106.807V120.525Z" stroke="#56A661" stroke-linecap="round" stroke-linejoin="round"/>
<path d="M80.6367 120.524L74.8701 114.355" stroke="#56A661" stroke-linecap="round" stroke-linejoin="round"/>
<path d="M106.801 148.537L112.567 154.706" stroke="#56A661" stroke-linecap="round" stroke-linejoin="round"/>
<path d="M106.801 120.524L112.567 114.355" stroke="#56A661" stroke-linecap="round" stroke-linejoin="round"/>
<path d="M80.6367 148.537L74.8701 154.706" stroke="#56A661" stroke-linecap="round" stroke-linejoin="round"/>
<path d="M67.735 164.982H30.043V199.361H67.735V164.982Z" stroke="#56A661" stroke-linecap="round" stroke-linejoin="round"/>
<path d="M61.9747 171.15H35.8047V199.162H61.9747V171.15Z" stroke="#56A661" stroke-linecap="round" stroke-linejoin="round"/>
<path d="M35.804 171.151L30.043 164.982" stroke="#56A661" stroke-linecap="round" stroke-linejoin="round"/>
<path d="M61.9746 171.151L67.7356 164.982" stroke="#56A661" stroke-linecap="round" stroke-linejoin="round"/>
<path d="M112.562 164.982H74.8701V199.361H112.562V164.982Z" stroke="#56A661" stroke-linecap="round" stroke-linejoin="round"/>
<path d="M106.807 171.15H80.6367V199.162H106.807V171.15Z" stroke="#56A661" stroke-linecap="round" stroke-linejoin="round"/>
<path d="M80.6367 171.151L74.8701 164.982" stroke="#56A661" stroke-linecap="round" stroke-linejoin="round"/>
<path d="M106.801 171.151L112.567 164.982" stroke="#56A661" stroke-linecap="round" stroke-linejoin="round"/>
<path d="M28.7373 108.933C28.7373 108.321 28.5559 107.723 28.2161 107.214C27.8762 106.706 27.3932 106.309 26.8281 106.075C26.2629 105.841 25.6411 105.78 25.0412 105.899C24.4412 106.019 23.8901 106.313 23.4576 106.746C23.0251 107.178 22.7305 107.729 22.6112 108.329C22.4919 108.929 22.5531 109.551 22.7872 110.116C23.0213 110.681 23.4177 111.164 23.9263 111.504C24.4349 111.844 25.0328 112.025 25.6445 112.025C26.4648 112.025 27.2514 111.7 27.8314 111.12C28.4114 110.54 28.7373 109.753 28.7373 108.933Z" stroke="#56A661" stroke-linecap="round" stroke-linejoin="round"/>
<path d="M225.667 199.36C223.875 187.314 215.991 134.086 216.129 132.493C216.278 130.69 195.13 124.091 195.13 124.091L183.283 123.639V123.496L181.409 123.568L179.534 123.496V123.639L167.687 124.091C167.687 124.091 146.545 130.707 146.694 132.493C146.826 134.086 138.942 187.314 137.156 199.36H225.667Z" fill="#56A661" stroke="#56A661" stroke-linecap="round" stroke-linejoin="round"/>
<path d="M215.766 131.971L216.129 132.494C216.141 132.346 216.008 132.169 215.766 131.971Z" fill="#263238" stroke="#56A661" stroke-linecap="round" stroke-linejoin="round"/>
<path d="M195.269 136.121L212.513 130.267C206.51 127.664 195.131 124.114 195.131 124.114L189.772 123.91L195.269 136.121Z" fill="#56A661" stroke="#56A661" stroke-linecap="round" stroke-linejoin="round"/>
<path d="M216.311 134.424L222.595 199.361H225.688C224.056 188.495 217.507 144.292 216.311 134.424Z" fill="#56A661" stroke="#56A661" stroke-linecap="round" stroke-linejoin="round"/>
<path d="M224.834 199.361L214.469 178.104L208.984 178.23L208.278 199.361H224.834Z" fill="#56A661" stroke="#263238" stroke-linecap="round" stroke-linejoin="round"/>
<path d="M206.239 153.328V150.781" stroke="#263238" stroke-linecap="round" stroke-linejoin="round"/>
<path d="M206.239 176.664V156.244" stroke="#263238" stroke-linecap="round" stroke-linejoin="round"/>
<path d="M154.527 199.361L153.821 178.23L148.336 178.104L137.972 199.361H154.527Z" fill="#56A661" stroke="#263238" stroke-linecap="round" stroke-linejoin="round"/>
<path d="M156.567 158.67V150.781" stroke="#263238" stroke-linecap="round" stroke-linejoin="round"/>
<path d="M156.567 176.663V160.609" stroke="#263238" stroke-linecap="round" stroke-linejoin="round"/>
<path d="M175.488 137.593L181.486 145.388L174.887 188.731L182.682 198.478L188.983 187.981L182.682 144.941L188.834 137.289L182.985 130.393L175.488 137.593Z" fill="#263238" stroke="#263238" stroke-linecap="round" stroke-linejoin="round"/>
<path d="M182.561 135.018C182.561 135.018 176.684 138.326 175.035 140.421C173.387 142.516 169.489 146.568 169.489 147.036C169.489 147.505 165.741 133.094 165.741 128.595C165.741 124.097 165.288 124.543 166.49 123.193C167.692 121.842 171.452 118.093 172.488 117.647C173.525 117.2 191.53 117.498 192.583 117.944C193.636 118.391 196.332 123.794 197.082 125.596C197.453 126.418 197.754 127.27 197.98 128.143C197.98 128.143 196.326 137.89 196.029 140.272C195.731 142.653 193.482 147.769 193.482 147.769C193.482 147.769 186.585 139.676 186.133 138.623C185.681 137.57 182.561 135.018 182.561 135.018Z" fill="#56A661" stroke="#263238" stroke-linecap="round" stroke-linejoin="round"/>
<path d="M171.585 111.799L171.745 123.045L182.561 135.041L191.966 123.944L192.281 112.245L171.585 111.799Z" fill="white" stroke="#263238" stroke-linecap="round" stroke-linejoin="round"/>
<path d="M177.428 116.309L178.057 117.362L191.029 125.058L191.966 123.944L192.28 112.246L176.116 111.898L177.428 116.309Z" fill="white"/>
<path d="M169.082 94.9786C169.082 94.9786 167.373 89.4987 164.76 90.8825C162.147 92.2662 163.238 98.1706 164.81 99.8906C165.96 101.02 167.365 101.856 168.906 102.327C168.906 102.327 168.106 110.095 171.585 112.951C175.064 115.807 176.547 119.329 178.653 119.423C180.759 119.517 185.858 119.423 186.768 119.186C187.677 118.949 192.656 115.09 193.709 111.688C194.354 109.556 194.753 107.357 194.899 105.133C194.899 105.133 200.385 99.9733 200.666 96.9853C200.947 93.9973 198.461 92.9829 197.226 93.3798L196.007 93.7768L196.713 84.6473C196.713 84.6473 203.93 84.3717 203.963 83.6219C203.996 82.8722 201.019 78.9855 201.019 78.9855C201.019 78.9855 209.873 79.0793 210.484 75.358C211.096 71.6368 203.466 67.8384 201.184 68.4889C198.902 69.1394 195.274 69.7238 195.274 69.7238C195.274 69.7238 200.534 66.2065 198.213 64.4534C195.892 62.7003 191.377 62.9484 188.741 64.7787C187.377 65.6767 186.121 66.7293 184.998 67.9155C183.405 66.3699 181.323 65.4282 179.11 65.2528C175.372 64.933 173.2 66.4877 174.231 66.9838C174.826 67.2564 175.328 67.6972 175.676 68.2518C175.676 68.2518 168.101 69.8671 167.147 74.3161C166.193 78.765 169.082 94.9786 169.082 94.9786Z" fill="white" stroke="#263238" stroke-linecap="round" stroke-linejoin="round"/>
<path d="M197.236 93.3791L196.282 93.6878L195.483 95.7L194.932 105.133C194.932 105.133 200.417 99.9726 200.698 96.9846C200.979 93.9965 198.443 92.9822 197.236 93.3791Z" fill="#263238"/>
<path d="M174.408 94.168L178.394 94.5263" stroke="#263238" stroke-linecap="round" stroke-linejoin="round"/>
<path d="M188.023 94.9566L191.849 94.7637" stroke="#263238" stroke-linecap="round" stroke-linejoin="round"/>
<path d="M167.24 91.5273L169.082 94.9784C168.682 93.7259 168.058 92.5565 167.24 91.5273Z" stroke="#263238" stroke-linecap="round" stroke-linejoin="round"/>
<path d="M210.468 75.358C211.085 71.6313 203.538 68.4889 201.168 68.4889C199.133 68.4819 197.119 68.9026 195.258 69.7238C195.258 69.7238 200.517 66.2065 198.196 64.4534C195.875 62.7003 191.36 62.9484 188.725 64.7787C187.361 65.6767 186.104 66.7293 184.982 67.9155C183.389 66.3699 181.306 65.4282 179.094 65.2528C175.356 64.933 173.184 66.4877 174.215 66.9838C174.81 67.2564 175.312 67.6972 175.659 68.2518C175.659 68.2518 168.084 69.8671 167.131 74.3161C166.177 78.765 169.066 94.9676 169.066 94.9676L170.29 94.4163C170.234 92.8235 170.563 91.2407 171.249 89.8019C172.418 87.1557 173.812 86.1634 173.895 84.2173C173.978 82.2713 172.059 78.2799 174.501 77.3427C176.944 76.4055 191.592 77.3427 193.102 77.7175C194.613 78.0924 195.566 79.6305 195.01 82.0066C194.453 84.3827 193.973 85.1104 194.519 86.3398C195.065 87.5692 195.622 91.6433 195.577 92.8396L195.528 94.0359L195.456 95.6898L196.195 93.6996L195.991 93.7657L196.697 84.6363C196.697 84.6363 203.913 84.3607 203.946 83.6109C203.979 82.8611 201.002 78.9745 201.002 78.9745C201.002 78.9745 209.873 79.0792 210.468 75.358Z" fill="#263238" stroke="#263238" stroke-linecap="round" stroke-linejoin="round"/>
<path d="M196.686 77.7285C197.244 78.034 197.827 78.294 198.428 78.5058" stroke="#263238" stroke-linecap="round" stroke-linejoin="round"/>
<path d="M180.587 73.3291C180.587 73.3291 188.911 76.9842 190.576 76.5156C192.241 76.047 191.172 72.7227 191.172 72.7227C192.258 74.2444 193.575 75.5874 195.075 76.703" stroke="#263238" stroke-linecap="round" stroke-linejoin="round"/>
<path d="M186.162 88.9844L185.059 93.5877C185.059 93.5877 185.495 97.2097 185.847 99.4755C186.077 100.728 185.966 102.018 185.528 103.213L179.535 102.949L186.95 104.509L187.909 102.464L186.057 93.3231L186.162 88.9844Z" fill="#263238" stroke="#263238" stroke-linecap="round" stroke-linejoin="round"/>
<path d="M177.01 105.689C177.761 106.544 178.814 107.076 179.948 107.172L185.34 107.409C185.815 107.391 186.28 107.271 186.704 107.057C187.129 106.843 187.502 106.54 187.799 106.169" stroke="#263238" stroke-linecap="round" stroke-linejoin="round"/>
<path d="M178.332 91.8636C178.299 92.5307 177.996 93.0599 177.649 93.0434C177.301 93.0269 177.042 92.4921 177.097 91.8085C177.152 91.1249 177.434 90.6122 177.781 90.6232C178.128 90.6342 178.36 91.1966 178.332 91.8636Z" fill="#263238" stroke="#263238" stroke-linecap="round" stroke-linejoin="round"/>
<path d="M189.132 92.3447C189.104 93.0117 188.795 93.541 188.448 93.5244C188.101 93.5079 187.847 92.9731 187.897 92.2895C187.946 91.6059 188.233 91.0932 188.58 91.1098C188.928 91.1263 189.159 91.6776 189.132 92.3447Z" fill="#263238" stroke="#263238" stroke-linecap="round" stroke-linejoin="round"/>
<path d="M174.838 87.1277C177.06 86.4418 179.458 86.6028 181.569 87.5797" stroke="#263238" stroke-width="3" stroke-linecap="round" stroke-linejoin="round"/>
<path d="M186.662 87.8067C186.662 87.8067 189.584 86.2851 191.899 88.1871" stroke="#263238" stroke-width="3" stroke-linecap="round" stroke-linejoin="round"/>
<path d="M191.392 170.925C189.699 169.796 188.149 168.465 186.778 166.961C186.514 166.656 186.152 166.454 185.754 166.388C185.356 166.323 184.948 166.399 184.6 166.603L183.608 167.154C183.321 167.318 183.089 167.561 182.938 167.855C182.787 168.148 182.725 168.48 182.759 168.808C182.858 169.91 183.189 171.564 184.253 172.617C185.256 173.63 186.402 174.49 187.655 175.17L192.583 173.301L191.392 170.925Z" fill="white" stroke="#263238" stroke-linecap="round" stroke-linejoin="round"/>
<path d="M169.793 170.925C169.793 170.925 172.941 168.868 174.694 166.603C174.86 166.393 175.096 166.251 175.358 166.202C175.621 166.153 175.892 166.202 176.122 166.338L177.903 167.363C178.079 167.465 178.224 167.614 178.322 167.793C178.419 167.972 178.465 168.174 178.454 168.378C178.404 169.42 178.14 171.41 176.927 172.623C175.924 173.636 174.778 174.496 173.525 175.175L168.597 173.306L169.793 170.925Z" fill="white" stroke="#263238" stroke-linecap="round" stroke-linejoin="round"/>
<path d="M214.095 199.362V173.307C214.095 172.841 213.91 172.394 213.58 172.064C213.25 171.734 212.803 171.549 212.336 171.549H150.216C149.985 171.548 149.756 171.593 149.542 171.681C149.328 171.769 149.133 171.899 148.969 172.062C148.805 172.225 148.675 172.419 148.587 172.633C148.498 172.847 148.452 173.076 148.452 173.307V199.362H214.095Z" fill="#56A661" stroke="#263238" stroke-linecap="round" stroke-linejoin="round"/>
<path d="M213.224 171.786C212.961 171.632 212.663 171.55 212.358 171.549H150.216C149.943 171.548 149.674 171.612 149.43 171.735C149.185 171.857 148.973 172.035 148.811 172.254C153.017 175.794 175.074 194.091 182.412 194.372C190.003 194.67 208.472 176.56 213.224 171.786Z" stroke="#263238" stroke-linecap="round" stroke-linejoin="round"/>
<path d="M185.902 187.889H178.834V199.196H185.902V187.889Z" fill="#263238" stroke="#263238" stroke-linecap="round" stroke-linejoin="round"/>
<path d="M170.416 164.586H168.2C167.503 164.586 166.938 165.151 166.938 165.848V173.374C166.938 174.071 167.503 174.636 168.2 174.636H170.416C171.113 174.636 171.679 174.071 171.679 173.374V165.848C171.679 165.151 171.113 164.586 170.416 164.586Z" fill="white" stroke="#263238" stroke-linecap="round" stroke-linejoin="round"/>
<path d="M167.671 174.542C167.819 174.605 167.979 174.636 168.14 174.636H170.477C170.669 174.637 170.858 174.592 171.028 174.504V171.643H167.687L167.671 174.542Z" stroke="#263238" stroke-linecap="round" stroke-linejoin="round"/>
<path d="M168.007 167.887H170.51" stroke="#263238" stroke-linecap="round" stroke-linejoin="round"/>
<path d="M168.508 166.996C168.857 166.851 169.234 166.791 169.611 166.819C169.987 166.848 170.352 166.965 170.674 167.161" stroke="#263238" stroke-linecap="round" stroke-linejoin="round"/>
<path d="M160.239 164.586H158.023C157.326 164.586 156.761 165.151 156.761 165.848V173.374C156.761 174.071 157.326 174.636 158.023 174.636H160.239C160.937 174.636 161.502 174.071 161.502 173.374V165.848C161.502 165.151 160.937 164.586 160.239 164.586Z" fill="white" stroke="#263238" stroke-linecap="round" stroke-linejoin="round"/>
<path d="M157.494 174.542C157.643 174.605 157.802 174.636 157.963 174.636H160.3C160.492 174.639 160.682 174.594 160.852 174.504V171.643H157.544L157.494 174.542Z" stroke="#263238" stroke-linecap="round" stroke-linejoin="round"/>
<path d="M157.829 167.887H160.332" stroke="#263238" stroke-linecap="round" stroke-linejoin="round"/>
<path d="M158.326 166.996C158.676 166.851 159.055 166.791 159.432 166.819C159.809 166.848 160.174 166.965 160.498 167.161" stroke="#263238" stroke-linecap="round" stroke-linejoin="round"/>
<path d="M154.814 166.498H153.502C152.804 166.498 152.239 167.063 152.239 167.761V173.373C152.239 174.07 152.804 174.635 153.502 174.635H154.814C155.511 174.635 156.076 174.07 156.076 173.373V167.761C156.076 167.063 155.511 166.498 154.814 166.498Z" fill="white" stroke="#263238" stroke-linecap="round" stroke-linejoin="round"/>
<path d="M152.835 174.558C152.953 174.608 153.081 174.635 153.21 174.635H155.106C155.256 174.631 155.402 174.596 155.536 174.53V172.209H152.835V174.558Z" stroke="#263238" stroke-linecap="round" stroke-linejoin="round"/>
<path d="M153.104 169.166H155.128" stroke="#263238" stroke-linecap="round" stroke-linejoin="round"/>
<path d="M153.508 168.429C153.791 168.311 154.097 168.262 154.403 168.285C154.708 168.308 155.004 168.402 155.266 168.561" stroke="#263238" stroke-linecap="round" stroke-linejoin="round"/>
<path d="M165.161 163.268H162.945C162.248 163.268 161.683 163.833 161.683 164.53V173.373C161.683 174.07 162.248 174.635 162.945 174.635H165.161C165.859 174.635 166.424 174.07 166.424 173.373V164.53C166.424 163.833 165.859 163.268 165.161 163.268Z" fill="white" stroke="#263238" stroke-linecap="round" stroke-linejoin="round"/>
<path d="M162.416 174.542C162.562 174.605 162.72 174.636 162.879 174.636H165.222C165.414 174.639 165.604 174.594 165.773 174.504V171.643H162.438L162.416 174.542Z" stroke="#263238" stroke-linecap="round" stroke-linejoin="round"/>
<path d="M162.746 167.887H165.254" stroke="#263238" stroke-linecap="round" stroke-linejoin="round"/>
<path d="M163.249 166.996C163.599 166.851 163.977 166.791 164.355 166.819C164.732 166.848 165.097 166.965 165.421 167.161" stroke="#263238" stroke-linecap="round" stroke-linejoin="round"/>
<path d="M191.541 174.635H193.757C194.454 174.635 195.02 174.07 195.02 173.372V165.847C195.02 165.15 194.454 164.585 193.757 164.585H191.541C190.844 164.585 190.278 165.15 190.278 165.847V173.372C190.278 174.07 190.844 174.635 191.541 174.635Z" fill="white" stroke="#263238" stroke-linecap="round" stroke-linejoin="round"/>
<path d="M194.287 174.542C194.139 174.605 193.979 174.636 193.818 174.636H191.481C191.289 174.639 191.099 174.594 190.93 174.504V171.643H194.237L194.287 174.542Z" stroke="#263238" stroke-linecap="round" stroke-linejoin="round"/>
<path d="M193.951 167.887H191.448" stroke="#263238" stroke-linecap="round" stroke-linejoin="round"/>
<path d="M193.453 166.996C193.104 166.851 192.725 166.791 192.348 166.819C191.97 166.848 191.605 166.965 191.281 167.161" stroke="#263238" stroke-linecap="round" stroke-linejoin="round"/>
<path d="M201.719 174.635H203.935C204.632 174.635 205.197 174.07 205.197 173.372V165.847C205.197 165.15 204.632 164.585 203.935 164.585H201.719C201.021 164.585 200.456 165.15 200.456 165.847V173.372C200.456 174.07 201.021 174.635 201.719 174.635Z" fill="white" stroke="#263238" stroke-linecap="round" stroke-linejoin="round"/>
<path d="M204.463 174.542C204.317 174.605 204.159 174.636 204 174.636H201.646C201.454 174.638 201.265 174.593 201.095 174.504V171.643H204.43L204.463 174.542Z" stroke="#263238" stroke-linecap="round" stroke-linejoin="round"/>
<path d="M204.134 167.887H201.631" stroke="#263238" stroke-linecap="round" stroke-linejoin="round"/>
<path d="M203.631 166.996C203.281 166.851 202.903 166.791 202.525 166.819C202.148 166.848 201.783 166.965 201.459 167.161" stroke="#263238" stroke-linecap="round" stroke-linejoin="round"/>
<path d="M207.149 174.629H208.461C209.158 174.629 209.724 174.064 209.724 173.366V167.754C209.724 167.057 209.158 166.492 208.461 166.492H207.149C206.452 166.492 205.887 167.057 205.887 167.754V173.366C205.887 174.064 206.452 174.629 207.149 174.629Z" fill="white" stroke="#263238" stroke-linecap="round" stroke-linejoin="round"/>
<path d="M209.128 174.558C209.008 174.609 208.878 174.635 208.748 174.635H206.857C206.707 174.633 206.56 174.597 206.427 174.53V172.209H209.128V174.558Z" stroke="#263238" stroke-linecap="round" stroke-linejoin="round"/>
<path d="M208.858 169.166H206.829" stroke="#263238" stroke-linecap="round" stroke-linejoin="round"/>
<path d="M208.449 168.429C208.167 168.311 207.862 168.262 207.557 168.285C207.252 168.308 206.957 168.402 206.696 168.561" stroke="#263238" stroke-linecap="round" stroke-linejoin="round"/>
<path d="M196.796 174.629H199.012C199.709 174.629 200.274 174.064 200.274 173.366V164.524C200.274 163.826 199.709 163.261 199.012 163.261H196.796C196.099 163.261 195.533 163.826 195.533 164.524V173.366C195.533 174.064 196.099 174.629 196.796 174.629Z" fill="white" stroke="#263238" stroke-linecap="round" stroke-linejoin="round"/>
<path d="M199.54 174.542C199.394 174.605 199.236 174.636 199.077 174.636H196.74C196.548 174.638 196.359 174.593 196.188 174.504V171.643H199.524L199.54 174.542Z" stroke="#263238" stroke-linecap="round" stroke-linejoin="round"/>
<path d="M199.21 167.887H196.707" stroke="#263238" stroke-linecap="round" stroke-linejoin="round"/>
<path d="M198.709 166.996C198.36 166.851 197.982 166.791 197.606 166.819C197.229 166.848 196.865 166.965 196.542 167.161" stroke="#263238" stroke-linecap="round" stroke-linejoin="round"/>
<path d="M51.585 199.361H247.989" stroke="#263238" stroke-linecap="round" stroke-linejoin="round"/>
<path d="M109.459 183.738L112.921 201.077H101.36L109.459 183.738Z" fill="#263238" stroke="#263238" stroke-linecap="round" stroke-linejoin="round"/>
<path d="M105.517 202.46H42.9727L46.9144 183.738H109.459L105.517 202.46Z" fill="#56A661" stroke="#263238" stroke-linecap="round" stroke-linejoin="round"/>
<path d="M54.1145 59.8535C54.1145 59.8535 40.2218 67.6929 39.869 69.2916C39.5162 70.8904 40.2218 87.8151 39.6871 89.0611C39.1523 90.307 31.6768 101.526 31.6768 107.403C31.6768 113.279 31.5003 145.161 31.5003 145.161L21.373 163.502L45.9498 172.406L58.2381 153.706C58.2381 153.706 66.4304 146.407 68.2111 144.626L65.3333 59.3242L54.1145 59.8535Z" fill="white" stroke="#263238" stroke-linecap="round" stroke-linejoin="round"/>
<path d="M47.7031 73.3867C47.7031 73.3867 54.2911 75.3493 56.6065 77.6648" stroke="#263238" stroke-linecap="round" stroke-linejoin="round"/>
<path d="M49.6602 85.141C49.6602 85.141 51.6228 84.5897 55.1731 84.9646" stroke="#263238" stroke-linecap="round" stroke-linejoin="round"/>
<path d="M49.2854 32.2276C49.2854 32.2276 66.5409 149.863 66.8 154.064C67.0592 158.265 67.3238 163.474 67.3238 163.474C67.3238 163.474 88.499 158.248 102.353 156.418C116.207 154.588 162.218 150.668 162.218 150.668C162.218 150.668 150.454 69.8866 148.888 59.1529C147.322 48.4191 142.35 16.0195 142.35 16.0195C142.35 16.0195 92.6833 20.463 77.2581 20.463C67.3678 20.5269 57.4954 21.3137 47.7197 22.817L49.2854 32.2276Z" fill="white" stroke="#263238" stroke-linecap="round" stroke-linejoin="round"/>
<path d="M69.0279 31.7305C70.2463 31.6367 70.8362 32.2211 70.985 33.3843L71.0677 34.0238C71.178 34.8783 70.9464 35.4352 70.3125 35.6777C71.0457 35.8321 71.3875 36.3944 71.4977 37.2269L71.6521 38.4397C71.6689 38.7642 71.7635 39.08 71.9277 39.3604L71.0512 39.432C70.8925 39.144 70.8019 38.8234 70.7866 38.4948L70.6267 37.271C70.5164 36.3889 70.0754 36.1684 69.3477 36.2015L68.7413 36.2456L69.1713 39.5533L68.3057 39.6195L67.2969 31.8683L69.0279 31.7305ZM69.2815 35.4241C69.9651 35.369 70.3455 35.1154 70.2408 34.2719L70.1416 33.5222C70.0534 32.822 69.7501 32.4747 69.1051 32.5243L68.2672 32.5905L68.6365 35.4737L69.2815 35.4241Z" fill="#263238"/>
<path d="M74.8482 34.7703L74.9474 35.5531L73.051 35.6964L73.4093 38.4529L75.7358 38.271L75.8405 39.0648L72.6485 39.3074L71.6396 31.5176L74.8317 31.2695L74.9364 32.0634L72.6099 32.2398L72.9517 34.9026L74.8482 34.7703Z" fill="#263238"/>
<path d="M79.3193 32.8437L79.413 33.5439L78.5916 33.6045L78.4978 32.8603C78.4041 32.1601 78.0733 31.7577 77.4393 31.8073C76.8054 31.8569 76.5904 32.2979 76.6786 32.9981L77.2299 37.1162C77.3236 37.8219 77.6654 38.2188 78.2883 38.1747C78.9113 38.1306 79.1373 37.6786 79.0491 36.9784L78.9168 35.964L79.7382 35.9034L79.8651 36.8737C80.0139 38.0535 79.5618 38.8749 78.3655 38.9631C77.1692 39.0513 76.5242 38.3181 76.3754 37.1383L75.8516 33.1083C75.7028 31.9286 76.1548 31.1071 77.3401 31.0189C78.5254 30.9307 79.1704 31.6584 79.3193 32.8437Z" fill="#263238"/>
<path d="M80.0413 32.7846C79.8869 31.5938 80.3776 30.7834 81.5629 30.6897C82.7481 30.596 83.4428 31.3237 83.5971 32.5145L84.1209 36.5445C84.2697 37.7242 83.7846 38.5512 82.5883 38.6394C81.392 38.7276 80.7139 37.9999 80.565 36.8201L80.0413 32.7846ZM81.4195 36.7981C81.5133 37.5092 81.8661 37.9007 82.4835 37.851C83.101 37.8014 83.3546 37.3659 83.2609 36.6547L82.7096 32.5366C82.6158 31.8364 82.274 31.434 81.6401 31.4836C81.0061 31.5332 80.7745 31.9742 80.8682 32.6744L81.4195 36.7981Z" fill="#263238"/>
<path d="M88.0416 38.1329L87.2092 38.1936L85.1253 32.0962L85.9246 38.3038L85.1749 38.3645L84.166 30.5692L85.3734 30.4809L87.4517 36.6058L87.8817 30.2715L89.0891 30.1777L90.0924 37.9896L89.271 38.0557L88.4661 31.782L88.0416 38.1329Z" fill="#263238"/>
<path d="M93.8414 37.6847L93.009 37.7509L90.9251 31.6481L91.7245 37.8612L90.9692 37.9163L89.9658 30.1265L91.1732 30.0328L93.2515 36.1577L93.676 29.8398L94.8834 29.7461L95.8922 37.5414L95.0708 37.602L94.2604 31.3338L93.8414 37.6847Z" fill="#263238"/>
<path d="M98.9788 32.9158L99.0781 33.6987L97.1816 33.842L97.5399 36.5985L99.8664 36.4165L99.9712 37.2104L96.7792 37.453L95.7979 29.6797L98.9898 29.4316L99.0946 30.2255L96.7681 30.4019L97.1099 33.0647L98.9788 32.9158Z" fill="#263238"/>
<path d="M101.532 37.1067L100.76 37.1674L99.751 29.372L100.854 29.2894L103.378 34.8023L102.645 29.1681L103.406 29.1074L104.415 36.8862L103.516 36.9524L100.721 30.8219L101.532 37.1067Z" fill="#263238"/>
<path d="M106.113 28.8874C107.321 28.7937 107.971 29.4828 108.125 30.6846L108.633 34.6153C108.787 35.8061 108.329 36.5835 107.122 36.6772L105.303 36.815L104.294 29.0252L106.113 28.8874ZM107.006 35.8888C107.629 35.8392 107.877 35.4257 107.784 34.7146L107.265 30.7067C107.177 29.9955 106.824 29.6041 106.196 29.6757L105.264 29.7474L106.064 35.9605L107.006 35.8888Z" fill="#263238"/>
<path d="M110.353 34.8393L110.259 36.4326L109.46 36.4932L109.94 28.6152L111.191 28.5215L113.683 36.201L112.817 36.2672L112.338 34.6794L110.353 34.8393ZM110.353 34.0896L112.079 33.9517L110.623 29.5414L110.353 34.0896Z" fill="#263238"/>
<path d="M115.485 36.0307L114.586 29.0292L113.153 29.1395L113.054 28.3511L116.775 28.0645L116.88 28.8528L115.446 28.9631L116.35 35.9645L115.485 36.0307Z" fill="#263238"/>
<path d="M118.242 27.9492L119.245 35.7445L118.379 35.8107L117.376 28.0209L118.242 27.9492Z" fill="#263238"/>
<path d="M119.305 29.769C119.151 28.5782 119.636 27.7678 120.821 27.6741C122.007 27.5804 122.707 28.3081 122.861 29.4989L123.379 33.5289C123.534 34.7086 123.043 35.5301 121.847 35.6238C120.65 35.7175 119.978 34.9788 119.823 33.799L119.305 29.769ZM120.683 33.7825C120.772 34.4936 121.124 34.885 121.747 34.8354C122.37 34.7858 122.613 34.3503 122.519 33.6391L121.968 29.5209C121.874 28.8153 121.532 28.4184 120.904 28.468C120.275 28.5176 120.038 28.9586 120.127 29.6588L120.683 33.7825Z" fill="#263238"/>
<path d="M125.21 35.2884L124.433 35.349L123.43 27.5537L124.532 27.471L127.052 32.9839L126.324 27.3497L127.09 27.2891L128.094 35.0844L127.201 35.1505L124.4 29.0036L125.21 35.2884Z" fill="#263238"/>
<path d="M121.51 80.9301L141.61 78.7855C140.734 75.3455 140.127 72.9087 140.127 72.7213C140.127 72.2692 136.422 71.4643 134.735 71.117C134.405 70.5657 133.743 69.5734 133.462 69.4631H133.385L133.324 68.7354C133.517 68.4421 133.651 68.1146 133.721 67.7707C133.803 67.19 133.821 66.6022 133.776 66.0176C133.931 65.8136 135 64.3967 134.961 63.6249C134.96 63.4627 134.918 63.3035 134.839 63.1618C134.76 63.0202 134.647 62.9007 134.509 62.8145C134.406 62.762 134.291 62.7332 134.175 62.7303C134.059 62.7275 133.943 62.7506 133.837 62.798L133.627 62.9027L133.462 60.6479C134.082 60.5829 134.686 60.4113 135.248 60.1407C135.32 60.0856 135.314 60.0525 135.314 60.0305C135.078 59.6379 134.783 59.2846 134.438 58.983C134.95 58.8948 136.682 58.5255 136.693 57.6103C136.672 57.4006 136.598 57.1996 136.479 57.026C136.359 56.8525 136.198 56.7121 136.009 56.618C135.336 56.1825 134.289 55.9344 133.886 56.1163C133.484 56.2982 132.988 56.4746 132.674 56.5794C132.916 56.3148 133.286 55.8572 133.225 55.4768C133.214 55.4077 133.187 55.3421 133.146 55.2855C133.104 55.229 133.05 55.1831 132.988 55.1515C132.56 54.9871 132.095 54.9444 131.645 55.028C131.194 55.1117 130.776 55.3186 130.435 55.6257C130.132 55.9062 129.855 56.2144 129.608 56.5463C129.121 56.2217 128.538 56.0702 127.955 56.1163C127.194 56.1659 126.626 56.4746 126.598 56.7227C126.593 56.7627 126.604 56.8031 126.627 56.8358C126.651 56.8685 126.686 56.8911 126.725 56.8991C126.848 56.9344 126.961 56.9965 127.056 57.0811C126.653 57.2465 125.182 57.9411 125.115 59.0326C125.113 59.0693 125.113 59.1062 125.115 59.1429V59.3138C125.115 59.3414 125.115 59.3745 125.115 59.413C125.115 59.4516 125.115 59.413 125.115 59.4516V59.595V59.628V59.7548C125.115 59.7548 125.115 59.7934 125.115 59.81C125.113 59.8485 125.113 59.8872 125.115 59.9257V59.9864C125.115 60.0305 125.115 60.0746 125.143 60.1187V60.1628L125.176 60.3447V60.3943L125.209 60.5377V60.6038C125.209 60.6479 125.209 60.692 125.237 60.7361V60.7968C125.237 60.8574 125.237 60.9181 125.281 60.9732L125.33 61.1772V61.2323C125.33 61.2819 125.358 61.3316 125.369 61.3867V61.4473C125.369 61.4969 125.369 61.5521 125.413 61.6072V61.6513C125.452 61.7891 125.49 61.9325 125.529 62.0648V62.1034L125.578 62.2743V62.3129C125.578 62.379 125.617 62.4397 125.634 62.5003C125.672 62.6381 125.716 62.7759 125.755 62.9027C125.755 62.9634 125.793 63.0295 125.815 63.0847L126.036 63.7848C126.036 63.7848 126.036 63.7848 126.008 63.7848L125.975 63.7352L125.937 63.6966L125.887 63.636C125.871 63.6227 125.856 63.6079 125.843 63.5919L125.815 63.5643L125.771 63.5257L125.738 63.4981C125.647 63.4215 125.54 63.3668 125.424 63.3383C125.348 63.3179 125.269 63.3158 125.192 63.3321C125.116 63.3484 125.044 63.3826 124.983 63.432C124.875 63.5221 124.79 63.6364 124.734 63.7658C124.678 63.8951 124.654 64.0358 124.663 64.1762C124.668 64.8176 124.914 65.4336 125.352 65.9018C125.693 66.1469 126.085 66.3109 126.499 66.3814C126.499 66.7067 126.676 68.2944 127.502 68.9504L127.651 70.1909C127.219 70.6502 126.814 71.1343 126.438 71.6408C126.301 71.8392 126.251 71.9219 126.251 72.0653C124.597 72.793 121.389 74.2704 121.471 74.7005C121.708 74.8714 121.642 77.3853 121.51 80.9301Z" fill="#56A661"/>
<path d="M144.703 75.1349C144.717 74.1984 144.453 73.2788 143.945 72.4923C143.436 71.7059 142.706 71.0878 141.846 70.7164C140.986 70.345 140.036 70.2369 139.114 70.4057C138.193 70.5745 137.343 71.0127 136.671 71.6649C135.998 72.317 135.535 73.1539 135.338 74.0696C135.141 74.9853 135.221 75.9387 135.566 76.8093C135.911 77.68 136.507 78.4287 137.277 78.9608C138.048 79.4929 138.959 79.7845 139.896 79.7988C140.518 79.8083 141.135 79.6952 141.714 79.4659C142.292 79.2367 142.819 78.8957 143.266 78.4626C143.712 78.0295 144.069 77.5127 144.315 76.9418C144.562 76.3708 144.694 75.7568 144.703 75.1349Z" fill="#56A661" stroke="#263238" stroke-linecap="round" stroke-linejoin="round"/>
<path d="M138.033 74.1971L140.222 76.7386L144.522 69.0039" stroke="#263238" stroke-width="3" stroke-linecap="round" stroke-linejoin="round"/>
<path d="M73.7588 67.0489L115.122 63.2891" stroke="#263238" stroke-linecap="round" stroke-linejoin="round"/>
<path d="M74.5068 73.0626L115.87 69.3027" stroke="#263238" stroke-linecap="round" stroke-linejoin="round"/>
<path d="M94.4141 77.34L116.62 75.3223" stroke="#263238" stroke-linecap="round" stroke-linejoin="round"/>
<path d="M75.2568 79.0817L90.3458 77.709" stroke="#263238" stroke-linecap="round" stroke-linejoin="round"/>
<path d="M76.0117 85.0958L117.375 81.3359" stroke="#263238" stroke-linecap="round" stroke-linejoin="round"/>
<path d="M103.771 90.06L143.695 86.2285" stroke="#263238" stroke-linecap="round" stroke-linejoin="round"/>
<path d="M77.1367 92.6154L100.754 90.3496" stroke="#263238" stroke-linecap="round" stroke-linejoin="round"/>
<path d="M128.693 96.0452L144.824 94.4961" stroke="#263238" stroke-linecap="round" stroke-linejoin="round"/>
<path d="M78.2676 100.891L124.119 96.4863" stroke="#263238" stroke-linecap="round" stroke-linejoin="round"/>
<path d="M133.888 103.929L145.956 102.771" stroke="#263238" stroke-linecap="round" stroke-linejoin="round"/>
<path d="M98.8408 107.298L129.791 104.326" stroke="#263238" stroke-linecap="round" stroke-linejoin="round"/>
<path d="M79.3975 109.162L95.9694 107.574" stroke="#263238" stroke-linecap="round" stroke-linejoin="round"/>
<path d="M133.932 112.309L147.08 111.047" stroke="#263238" stroke-linecap="round" stroke-linejoin="round"/>
<path d="M80.5215 117.436L126.036 113.064" stroke="#263238" stroke-linecap="round" stroke-linejoin="round"/>
<path d="M99.3037 124.013L148.209 119.316" stroke="#263238" stroke-linecap="round" stroke-linejoin="round"/>
<path d="M81.6523 125.711L92.9759 124.619" stroke="#263238" stroke-linecap="round" stroke-linejoin="round"/>
<path d="M118.908 130.512L149.34 127.59" stroke="#263238" stroke-linecap="round" stroke-linejoin="round"/>
<path d="M82.7822 133.979L114.735 130.914" stroke="#263238" stroke-linecap="round" stroke-linejoin="round"/>
<path d="M145.25 136.361L150.465 135.859" stroke="#263238" stroke-linecap="round" stroke-linejoin="round"/>
<path d="M115.121 139.256L140.674 136.803" stroke="#263238" stroke-linecap="round" stroke-linejoin="round"/>
<path d="M83.9072 142.255L110.651 139.686" stroke="#263238" stroke-linecap="round" stroke-linejoin="round"/>
<path d="M50.7295 104.022C50.7295 104.022 53.7561 94.0493 55.184 89.5949C56.6118 85.1404 57.4994 81.579 58.5689 77.8413C59.6384 74.1035 59.1202 65.9112 59.1202 64.307C59.1202 62.7027 68.7403 63.2375 69.9862 63.4139C71.2321 63.5903 74.6171 84.6112 73.5476 88.8837C72.4781 93.1562 68.5859 96.7176 68.5859 99.2094C68.5859 101.701 68.404 106.514 68.404 107.584C68.404 108.653 71.0778 119.161 71.2542 123.786C71.4306 128.412 68.7624 135.363 68.2276 136.075C67.6928 136.786 55.2281 151.748 55.2281 151.748" fill="white"/>
<path d="M50.7295 104.022C50.7295 104.022 53.7561 94.0493 55.184 89.5949C56.6118 85.1404 57.4994 81.579 58.5689 77.8413C59.6384 74.1035 59.1202 65.9112 59.1202 64.307C59.1202 62.7027 68.7403 63.2375 69.9862 63.4139C71.2321 63.5903 74.6171 84.6112 73.5476 88.8837C72.4781 93.1562 68.5859 96.7176 68.5859 99.2095C68.5859 101.701 68.404 106.514 68.404 107.584C68.404 108.653 71.0778 119.161 71.2542 123.786C71.4306 128.412 68.7624 135.363 68.2276 136.075C67.6928 136.786 55.2281 151.748 55.2281 151.748" stroke="#263238" stroke-linecap="round" stroke-linejoin="round"/>
<path d="M60.168 75.3491C60.168 75.3491 64.2641 73.5684 67.649 74.9907C67.649 74.9907 68.0074 66.6221 66.0448 64.3066" stroke="#263238" stroke-linecap="round" stroke-linejoin="round"/>
<path d="M58.21 82.8319C60.257 83.2223 62.3746 82.972 64.2742 82.1152" stroke="#263238" stroke-linecap="round" stroke-linejoin="round"/>
<path d="M58.7451 81.0436C58.7451 81.0436 62.4829 78.9101 66.579 80.4923" stroke="#263238" stroke-linecap="round" stroke-linejoin="round"/>
<path d="M65.6917 79.0876C64.8405 78.7327 63.9231 78.5649 63.0015 78.5953C62.0798 78.6257 61.1755 78.8538 60.3496 79.264" stroke="#263238" stroke-linecap="round" stroke-linejoin="round"/>
<path d="M23.925 155.354C23.925 155.354 35.1659 154.048 44.3229 160.062C53.4799 166.077 56.1041 173.652 56.1041 173.652L48.5238 189.342C48.5238 189.342 35.4306 176.529 26.5437 173.393C17.6568 170.256 16.3447 169.997 16.3447 169.997L23.925 155.354Z" fill="white" stroke="#263238" stroke-linecap="round" stroke-linejoin="round"/>
<path d="M7.59082 177.152C14.6915 193.565 26.9799 207.915 45.2332 219.112L55.763 188.118C55.763 188.118 48.4418 174.005 39.814 169.297C31.1862 164.588 16.5494 162.764 16.5494 162.764L7.59082 177.152Z" fill="#56A661" stroke="#56A661" stroke-linecap="round" stroke-linejoin="round"/>
<path d="M70.7471 55.7688L139.185 50.5039" stroke="#56A661" stroke-linecap="round" stroke-linejoin="round"/>
</svg>
